<svg width="105" height="92" viewBox="0 0 105 92" fill="none" xmlns="http://www.w3.org/2000/svg">
<path d="M21.5241 40.4667H8.37532C9.02162 32.5675 11.8415 24.7593 16.5227 18.364C19.3491 25.3362 21.0377 32.959 21.5241 40.4667ZM30.1957 40.4667H48.4667V0.133331C38.7048 0.989205 30.1124 5.07691 22.9357 11.7493C27.2103 20.6693 29.6777 30.589 30.1957 40.4667ZM56.5333 0.133331V40.4667H74.8043C75.3222 30.589 77.7898 20.6693 82.0643 11.7493C74.8874 5.07691 66.2951 0.989205 56.5333 0.133331ZM88.4773 18.364C85.6508 25.3362 83.9624 32.959 83.476 40.4667H96.6246C95.9785 32.5675 93.1584 24.7593 88.4773 18.364ZM104.933 52.5601C104.933 54.7841 103.13 56.5869 100.906 56.5869H86.5413L80.4107 68.8484V88.0471C80.3929 88.6537 80.2009 89.2426 79.8581 89.7435C79.5145 90.2436 79.0345 90.6349 78.4747 90.8704C78.106 90.9696 77.7269 91.0237 77.3453 91.0318C76.9517 91.0495 76.5588 90.9793 76.1958 90.8252C75.8328 90.672 75.5093 90.4397 75.248 90.1444L67.02 81.9971L54.194 90.5478C53.6856 90.864 53.0988 91.0318 52.5 91.0318C51.9012 91.0318 51.3144 90.864 50.806 90.5478L37.98 81.9971L29.752 90.1444C29.3451 90.5687 28.822 90.8648 28.2481 90.9938C27.6743 91.1229 27.075 91.0802 26.5253 90.8704C25.9657 90.6349 25.4855 90.2436 25.1422 89.7435C24.799 89.2426 24.607 88.6537 24.5893 88.0471V68.8484L18.4587 56.5869H4.09345C1.86955 56.5869 0.0666504 54.7841 0.0666504 52.5602C0.0666343 50.3362 1.86947 48.5333 4.09345 48.5333H100.906C103.13 48.5333 104.933 50.3362 104.933 52.5601ZM47.3373 56.5869H25.2346L30.3167 66.8318C30.5361 67.2262 30.6474 67.6715 30.6393 68.1224V80.7064L35.1567 76.2698L47.3373 56.5869ZM63.3093 77.1571L52.5 59.7329L41.6906 77.1571L52.5 84.4171L63.3093 77.1571ZM79.846 56.5869H57.6627L69.8433 76.2698L74.3606 80.7064V68.1224C74.3526 67.6715 74.4639 67.2262 74.6833 66.8318L79.846 56.5869Z" fill="#F77F00"/>
</svg>
