<svg width="70" height="51" viewBox="0 0 70 51" fill="none" xmlns="http://www.w3.org/2000/svg">
<path fill-rule="evenodd" clip-rule="evenodd" d="M68.5351 2.20035C69.4724 3.12861 69.999 4.38744 69.999 5.7C69.999 7.01256 69.4724 8.27139 68.5351 9.19965L28.5351 48.7997C27.5974 49.7276 26.3259 50.2489 25.0001 50.2489C23.6743 50.2489 22.4027 49.7276 21.4651 48.7997L1.46508 28.9996C0.554292 28.0661 0.0503204 26.8157 0.0617125 25.5178C0.0731045 24.2199 0.598949 22.9784 1.52599 22.0606C2.45303 21.1429 3.70709 20.6223 5.01808 20.611C6.32906 20.5997 7.59207 21.0987 8.53508 22.0004L25.0001 38.3007L61.4651 2.20035C62.4027 1.27237 63.6743 0.751057 65.0001 0.751057C66.3259 0.751057 67.5975 1.27237 68.5351 2.20035Z" fill="#3F3F46"/>
</svg>
