<svg width="39" height="45" viewBox="0 0 39 45" fill="none" xmlns="http://www.w3.org/2000/svg">
<path fill-rule="evenodd" clip-rule="evenodd" d="M37.9442 23.3058C38.4598 23.8216 38.7494 24.5209 38.7494 25.2501C38.7494 25.9793 38.4598 26.6786 37.9442 27.1943L21.4442 43.6943C20.9285 44.2099 20.2292 44.4995 19.5 44.4995C18.7708 44.4995 18.0714 44.2099 17.5557 43.6943L1.05573 27.1943C0.55479 26.6757 0.277606 25.981 0.283872 25.26C0.290137 24.539 0.579354 23.8492 1.08923 23.3393C1.5991 22.8295 2.28883 22.5403 3.00987 22.534C3.73092 22.5277 4.42557 22.8049 4.94423 23.3058L16.75 35.1116L16.75 3.2501C16.75 2.52075 17.0397 1.82128 17.5554 1.30555C18.0712 0.789828 18.7706 0.500099 19.5 0.500099C20.2293 0.500099 20.9288 0.789828 21.4445 1.30555C21.9602 1.82128 22.25 2.52075 22.25 3.2501L22.25 35.1116L34.0557 23.3058C34.5714 22.7903 35.2708 22.5007 36 22.5007C36.7292 22.5007 37.4285 22.7903 37.9442 23.3058V23.3058Z" fill="#EB5757"/>
</svg>
