<svg width="73" height="88" viewBox="0 0 73 88" fill="none" xmlns="http://www.w3.org/2000/svg">
<path fill-rule="evenodd" clip-rule="evenodd" d="M11.0076 10.8575C17.7686 4.09647 26.9386 0.298157 36.5001 0.298157C46.0617 0.298157 55.2316 4.09647 61.9926 10.8575C68.7536 17.6185 72.5519 26.7885 72.5519 36.35C72.5519 45.9115 68.7536 55.0815 61.9926 61.8425L36.5001 87.335L11.0076 61.8425C7.65967 58.4949 5.00392 54.5206 3.192 50.1466C1.38009 45.7726 0.44751 41.0845 0.44751 36.35C0.44751 31.6155 1.38009 26.9274 3.192 22.5534C5.00392 18.1794 7.65967 14.2051 11.0076 10.8575ZM36.5001 46.65C39.2318 46.65 41.8517 45.5648 43.7833 43.6332C45.7149 41.7016 46.8001 39.0817 46.8001 36.35C46.8001 33.6183 45.7149 30.9984 43.7833 29.0668C41.8517 27.1352 39.2318 26.05 36.5001 26.05C33.7684 26.05 31.1485 27.1352 29.2169 29.0668C27.2853 30.9984 26.2001 33.6183 26.2001 36.35C26.2001 39.0817 27.2853 41.7016 29.2169 43.6332C31.1485 45.5648 33.7684 46.65 36.5001 46.65Z" fill="#3F3F46"/>
</svg>
