<svg width="220" height="125" viewBox="0 0 220 125" fill="none" xmlns="http://www.w3.org/2000/svg">
<path d="M2.85 100V65H21.55C26.3833 65 29.95 65.8667 32.25 67.6C34.55 69.3 35.7 71.4833 35.7 74.15C35.7 75.9167 35.2 77.5 34.2 78.9C33.2333 80.2667 31.8167 81.35 29.95 82.15C28.0833 82.95 25.7833 83.35 23.05 83.35L24.05 80.65C26.7833 80.65 29.1333 81.0333 31.1 81.8C33.1 82.5667 34.6333 83.6833 35.7 85.15C36.8 86.5833 37.35 88.3167 37.35 90.35C37.35 93.3833 36.0833 95.75 33.55 97.45C31.05 99.15 27.3833 100 22.55 100H2.85ZM14.45 91.75H21.55C22.85 91.75 23.8167 91.5167 24.45 91.05C25.1167 90.5833 25.45 89.9 25.45 89C25.45 88.1 25.1167 87.4167 24.45 86.95C23.8167 86.4833 22.85 86.25 21.55 86.25H13.65V78.45H19.95C21.2833 78.45 22.25 78.2333 22.85 77.8C23.4833 77.3333 23.8 76.6833 23.8 75.85C23.8 74.9833 23.4833 74.3333 22.85 73.9C22.25 73.4667 21.2833 73.25 19.95 73.25H14.45V91.75ZM86.4926 100V65H98.2926V90.85H114.093V100H86.4926ZM117.352 100V65H129.152V90.85H144.952V100H117.352Z" fill="#F77F00"/>
<path d="M2.85 48V13H12.55L26.55 35.85H21.45L35.05 13H44.75L44.85 48H34.1L34 29.2H35.7L26.4 44.85H21.2L11.5 29.2H13.6V48H2.85ZM95.5258 48V13H105.226L123.026 34.3H118.526V13H130.026V48H120.326L102.526 26.7H107.026V48H95.5258ZM146.511 26H162.111V34.5H146.511V26ZM147.311 39.1H164.811V48H135.711V13H164.161V21.9H147.311V39.1ZM178.11 48V32.65L180.81 39.7L164.91 13H177.36L188.11 31.25H180.86L191.71 13H203.11L187.31 39.7L189.91 32.65V48H178.11Z" fill="#FCBF49"/>
<g clip-path="url(#clip0_16_1743)">
<path d="M61.7499 15.3447C53.3803 20.1769 50.5123 30.8806 55.3445 39.2502C60.1767 47.6198 70.8803 50.4878 79.2499 45.6556C87.6195 40.8234 90.4876 30.1198 85.6554 21.7502C80.8232 13.3806 70.1195 10.5125 61.7499 15.3447ZM75.3701 36.0188L76.1379 37.3487L74.8749 38.0779L74.1472 36.8175C72.8269 37.5494 71.2942 38.0184 69.8283 38.0868L69.2041 35.6787C70.6821 35.4502 72.5771 35.0196 73.6709 34.0092C74.9325 32.843 74.3674 31.1788 72.3485 31.3862C70.8563 31.517 66.9901 33.1244 65.2124 30.0453C64.2186 28.3239 64.6412 26.0255 66.9029 24.27L66.1249 22.9224L67.3879 22.1933L68.1302 23.479C69.0584 22.975 70.1758 22.5421 71.5206 22.2288L72.2643 24.5728C71.0975 24.7918 69.8466 25.1015 68.8398 25.7669C67.0227 26.9625 67.7972 28.686 69.5032 28.6104C72.2523 28.3787 75.5065 27.5052 77.0706 30.2142C78.3258 32.3825 77.2936 34.5176 75.3701 36.0188Z" fill="#6FCF97"/>
</g>
<g clip-path="url(#clip1_16_1743)">
<path d="M44.9776 72.1546C46.0964 72.673 47.0925 73.3689 47.993 74.2694C49.8213 76.0978 50.8446 78.2672 51.0629 80.7777L42.4943 80.7777C42.6854 77.6941 43.5313 74.8015 44.9776 72.1546ZM69.6055 83.6021C70.2877 88.2957 72.7028 91.6932 76.837 93.7807C76.5914 94.1082 76.1138 94.6676 75.3907 95.3908C73.9853 96.7961 72.0751 98.0241 69.701 99.1156C67.3406 100.194 65.1575 100.794 63.1791 100.917L63.1518 83.6703L69.6055 83.6021ZM51.0084 83.6703C50.3671 87.2042 48.3887 89.783 45.0458 91.4066C43.6677 88.9097 42.8082 86.3037 42.5626 83.6567L51.0084 83.6703ZM60.341 83.6703L60.3138 100.917C54.7605 100.548 50.1897 98.1605 46.6558 93.7807C47.8429 93.1667 48.9754 92.3344 50.0396 91.2702C50.8856 90.4242 51.6906 89.2372 52.441 87.7227C53.1914 86.2082 53.669 84.8301 53.8873 83.6021L60.341 83.6703ZM53.9828 80.805C53.8464 78.4036 53.0823 76.2206 51.7452 74.2285C50.3944 72.2501 48.7025 70.7492 46.6422 69.7259C46.9014 69.3848 47.379 68.8254 48.1021 68.1022C49.5075 66.6969 51.4177 65.4689 53.7918 64.3773C56.1523 63.2994 58.3353 62.6991 60.3138 62.5763L60.2728 80.7914L53.9828 80.805ZM72.4299 80.7777C72.8528 76.6981 74.8858 73.8192 78.5152 72.1546C79.1429 73.2188 79.7023 74.5969 80.1662 76.3161C80.6301 78.008 80.903 79.5088 80.9985 80.7777L72.4299 80.7777ZM78.5016 91.3521C77.3964 90.8199 76.4004 90.1241 75.4998 89.2235C74.0126 87.7363 73.0166 85.8671 72.5527 83.6021L80.9303 83.6567C80.6301 86.3582 79.8251 88.9097 78.5016 91.3521ZM63.22 80.7914L63.1791 62.5763C68.7323 62.9447 73.3031 65.3324 76.8506 69.7259C75.6499 70.3262 74.5174 71.1585 73.4532 72.2228C72.4708 73.2052 71.5839 74.5287 70.7926 76.2206C70.0148 77.8988 69.5509 79.3997 69.51 80.805L63.22 80.7914Z" fill="#F77F00"/>
</g>
<defs>
<clipPath id="clip0_16_1743">
<rect width="35" height="35" fill="white" transform="translate(46.5945 24.0947) rotate(-30)"/>
</clipPath>
<clipPath id="clip1_16_1743">
<rect width="46.3102" height="46.3102" fill="white" transform="translate(61.7463 49) rotate(45)"/>
</clipPath>
</defs>
</svg>
