<svg width="86" height="76" viewBox="0 0 86 76" fill="none" xmlns="http://www.w3.org/2000/svg">
<path d="M30.8472 39.5529C30.3583 39.0467 29.7735 38.6429 29.1268 38.3652C28.4802 38.0874 27.7848 37.9412 27.081 37.9351C26.3773 37.929 25.6794 38.0631 25.028 38.3295C24.3767 38.596 23.7849 38.9896 23.2873 39.4872C22.7897 39.9848 22.3961 40.5766 22.1296 41.2279C21.8632 41.8793 21.7291 42.5772 21.7352 43.2809C21.7413 43.9847 21.8875 44.6801 22.1653 45.3267C22.443 45.9734 22.8468 46.5582 23.353 47.0471L39.253 62.9471C40.2469 63.9407 41.5947 64.4989 43.0001 64.4989C44.4055 64.4989 45.7533 63.9407 46.7472 62.9471L62.6472 47.0471C63.6126 46.0475 64.1468 44.7087 64.1348 43.3191C64.1227 41.9294 63.5653 40.6001 62.5826 39.6175C61.6 38.6348 60.2707 38.0774 58.881 38.0653C57.4914 38.0533 56.1526 38.5875 55.153 39.5529L48.3001 46.4058V16.8H74.8001C77.6114 16.8 80.3075 17.9168 82.2954 19.9047C84.2833 21.8926 85.4001 24.5887 85.4001 27.4V64.5C85.4001 67.3113 84.2833 70.0074 82.2954 71.9953C80.3075 73.9832 77.6114 75.1 74.8001 75.1H11.2001C8.3888 75.1 5.69265 73.9832 3.70477 71.9953C1.71688 70.0074 0.600098 67.3113 0.600098 64.5V27.4C0.600098 24.5887 1.71688 21.8926 3.70477 19.9047C5.69265 17.9168 8.3888 16.8 11.2001 16.8H37.7001V46.4058L30.8472 39.5529V39.5529ZM37.7001 6.2C37.7001 4.79435 38.2585 3.44628 39.2524 2.45234C40.2464 1.45839 41.5944 0.900002 43.0001 0.900002C44.4057 0.900002 45.7538 1.45839 46.7478 2.45234C47.7417 3.44628 48.3001 4.79435 48.3001 6.2V16.8H37.7001V6.2Z" fill="#3F3F46"/>
</svg>
