<svg width="106" height="106" viewBox="0 0 106 106" fill="none" xmlns="http://www.w3.org/2000/svg">
<path d="M79.5001 42.4C82.7286 42.4001 85.8806 41.4174 88.5371 39.5825C91.1935 37.7476 93.2284 35.1476 94.3712 32.1281C95.514 29.1086 95.7105 25.8128 94.9346 22.6789C94.1587 19.545 92.4472 16.7215 90.0276 14.584C87.6081 12.4465 84.5951 11.0961 81.3895 10.7126C78.1839 10.3291 74.9374 10.9305 72.0819 12.4368C69.2263 13.9432 66.897 16.2832 65.4037 19.1456C63.9104 22.008 63.3238 25.2571 63.722 28.461L37.54 41.552C35.294 39.3862 32.4604 37.929 29.3922 37.3621C26.3241 36.7951 23.1569 37.1434 20.2852 38.3635C17.4135 39.5837 14.9643 41.6218 13.2427 44.2239C11.521 46.826 10.603 49.8772 10.603 52.9973C10.603 56.1175 11.521 59.1687 13.2427 61.7708C14.9643 64.3729 17.4135 66.411 20.2852 67.6312C23.1569 68.8513 26.3241 69.1996 29.3922 68.6326C32.4604 68.0657 35.294 66.6085 37.54 64.4427L63.722 77.5337C63.2582 81.2556 64.1251 85.0216 66.1694 88.1661C68.2137 91.3107 71.3038 93.6313 74.8936 94.7179C78.4834 95.8044 82.3418 95.587 85.7868 94.104C89.2318 92.621 92.0417 89.9679 93.7198 86.6136C95.3979 83.2593 95.8361 79.4197 94.9572 75.7735C94.0782 72.1273 91.9386 68.9092 88.9164 66.688C85.8943 64.4667 82.1842 63.3854 78.4418 63.635C74.6995 63.8846 71.1659 65.4491 68.4655 68.052L42.2835 54.961C42.4439 53.6586 42.4439 52.3414 42.2835 51.039L68.4655 37.948C71.3169 40.704 75.2071 42.4 79.5001 42.4Z" fill="#3F3F46"/>
</svg>
