<svg width="230" height="184" viewBox="0 0 230 184" fill="none" xmlns="http://www.w3.org/2000/svg">
<path d="M155.872 146.8L115 120.542L74.1282 146.8L86.4582 99.7633L48.8974 69.1666L97.4182 66.1983L115 21.2166L132.582 66.1983L181.102 69.1666L143.542 99.7633M206.333 92C206.333 79.3275 216.608 69.1666 229.167 69.1666V23.5C229.167 10.8275 218.892 0.666626 206.333 0.666626H23.6666C17.6108 0.666626 11.8031 3.07227 7.52098 7.35435C3.2389 11.6364 0.833252 17.4442 0.833252 23.5V69.1666C13.5058 69.1666 23.6666 79.4416 23.6666 92C23.6666 98.0557 21.2609 103.863 16.9789 108.146C12.6968 112.428 6.88903 114.833 0.833252 114.833V160.5C0.833252 166.556 3.2389 172.363 7.52098 176.646C11.8031 180.928 17.6108 183.333 23.6666 183.333H206.333C212.389 183.333 218.197 180.928 222.479 176.646C226.761 172.363 229.167 166.556 229.167 160.5V114.833C223.111 114.833 217.303 112.428 213.021 108.146C208.739 103.863 206.333 98.0557 206.333 92Z" fill="black"/>
</svg>
