<svg width="39" height="45" viewBox="0 0 39 45" fill="none" xmlns="http://www.w3.org/2000/svg">
<path fill-rule="evenodd" clip-rule="evenodd" d="M1.05577 21.6942C0.540227 21.1784 0.25061 20.4791 0.25061 19.7499C0.25061 19.0207 0.540227 18.3214 1.05577 17.8057L17.5558 1.30565C18.0715 0.790105 18.7708 0.500488 19.5 0.500488C20.2292 0.500488 20.9286 0.790105 21.4443 1.30565L37.9443 17.8057C38.4452 18.3243 38.7224 19.019 38.7161 19.74C38.7099 20.461 38.4206 21.1508 37.9108 21.6607C37.4009 22.1705 36.7112 22.4597 35.9901 22.466C35.2691 22.4723 34.5744 22.1951 34.0558 21.6942L22.25 9.8884V41.7499C22.25 42.4792 21.9603 43.1787 21.4446 43.6944C20.9288 44.2102 20.2294 44.4999 19.5 44.4999C18.7707 44.4999 18.0712 44.2102 17.5555 43.6944C17.0398 43.1787 16.75 42.4792 16.75 41.7499V9.8884L4.94427 21.6942C4.42857 22.2097 3.72922 22.4993 3.00002 22.4993C2.27082 22.4993 1.57147 22.2097 1.05577 21.6942V21.6942Z" fill="#6FCF97"/>
</svg>
