<svg width="67" height="67" viewBox="0 0 67 67" fill="none" xmlns="http://www.w3.org/2000/svg">
<path fill-rule="evenodd" clip-rule="evenodd" d="M1.82614 1.82615C2.86692 0.785688 4.27833 0.201187 5.74999 0.201187C7.22165 0.201187 8.63306 0.785688 9.67383 1.82615L33.5 25.6523L57.3261 1.82615C57.8381 1.29607 58.4505 0.873259 59.1276 0.582389C59.8048 0.291519 60.533 0.138415 61.27 0.132011C62.0069 0.125607 62.7377 0.266031 63.4198 0.54509C64.1019 0.824149 64.7215 1.23625 65.2426 1.75736C65.7637 2.27846 66.1758 2.89813 66.4549 3.58021C66.7339 4.26228 66.8744 4.9931 66.868 5.73003C66.8616 6.46695 66.7085 7.19522 66.4176 7.87234C66.1267 8.54947 65.7039 9.16188 65.1738 9.67385L41.3477 33.5L65.1738 57.3261C66.1848 58.3729 66.7442 59.7748 66.7316 61.23C66.7189 62.6852 66.1352 64.0772 65.1062 65.1062C64.0772 66.1353 62.6852 66.7189 61.23 66.7316C59.7748 66.7442 58.3729 66.1848 57.3261 65.1738L33.5 41.3477L9.67383 65.1738C8.62709 66.1848 7.22515 66.7442 5.76996 66.7316C4.31477 66.7189 2.92276 66.1353 1.89374 65.1062C0.864729 64.0772 0.281039 62.6852 0.268394 61.23C0.255749 59.7748 0.81516 58.3729 1.82614 57.3261L25.6523 33.5L1.82614 9.67385C0.785673 8.63307 0.201172 7.22166 0.201172 5.75C0.201172 4.27834 0.785673 2.86693 1.82614 1.82615Z" fill="#3F3F46"/>
</svg>
